# xmcd
#
# Track frame offsets:
# 150
# 9592
# 21232
# 30190
# 44555
# 61845
# 72650
# 88317
# 97267
# 109687
# 120300
# 129215
# 139712
# 150880
# 163765
#
# Disc length: 2349 seconds
#
#
# Revision: 3
# Processed by: cddbd v1.5.1PL2 Copyright (c) Steve Scherf et al.
# Submitted via: FreeRIP 2.944 
#
DISCID=bf092b0f
DTITLE=Various Artist - Banjo Hall Of Fame - Disc 2
DYEAR=1998
DGENRE=Bluegrass
TTITLE0=Stonemans - Soldier's Joy
TTITLE1=Wynn Osborne - Foggy Mountain Breakdown
TTITLE2=Lester Flatt - Dixie Flyer
TTITLE3=Masters - Roadside Breakdown
TTITLE4=Nashville Superpickers - New Kid In Town
TTITLE5=Eddie Adcock - Sonner's Stomp
TTITLE6=Wynn Osborne - Raindrops Keep Falling On My Head
TTITLE7=Carl Story - Buck Creek
TTITLE8=Don Reno - Cincinnati Rag
TTITLE9=Nashville Superpickers - Strawberry Fields Forever
TTITLE10=Don Reno and Bill Harrell - B.G.Chase
TTITLE11=Osborne Brothers - Jesse james
TTITLE12=Heights of Grass - Bile 'Em Cabbage Down
TTITLE13=Arthur Smith and Don Reno - Chicken
TTITLE14=Wynn Osborne - Flint Hill Special
EXTD=
EXTT0=
EXTT1=
EXTT2=
EXTT3=
EXTT4=
EXTT5=
EXTT6=
EXTT7=
EXTT8=
EXTT9=
EXTT10=
EXTT11=
EXTT12=
EXTT13=
EXTT14=
PLAYORDER=
